<mxfile host="app.diagrams.net" agent="Mozilla/5.0 (Windows NT 10.0; Win64; x64) AppleWebKit/537.36 (KHTML, like Gecko) Chrome/129.0.0.0 Safari/537.36" version="24.7.17">
  <diagram name="P치gina-1" id="t2JkzWrTatsrrkg4-881">
    <mxGraphModel grid="1" page="1" gridSize="10" guides="1" tooltips="1" connect="1" arrows="1" fold="1" pageScale="1" pageWidth="827" pageHeight="1169" math="0" shadow="0">
      <root>
        <mxCell id="0" />
        <mxCell id="1" parent="0" />
        <mxCell id="-gUTgzA7Ncet8yA0ThvM-30" style="edgeStyle=none;shape=connector;rounded=0;orthogonalLoop=1;jettySize=auto;html=1;exitX=1;exitY=0.5;exitDx=0;exitDy=0;entryX=0;entryY=0.5;entryDx=0;entryDy=0;strokeColor=default;align=center;verticalAlign=middle;fontFamily=Helvetica;fontSize=11;fontColor=default;labelBackgroundColor=default;endArrow=none;endFill=0;" edge="1" parent="1" source="-gUTgzA7Ncet8yA0ThvM-1" target="-gUTgzA7Ncet8yA0ThvM-3">
          <mxGeometry relative="1" as="geometry" />
        </mxCell>
        <mxCell id="-gUTgzA7Ncet8yA0ThvM-38" style="edgeStyle=none;shape=connector;rounded=0;orthogonalLoop=1;jettySize=auto;html=1;entryX=1;entryY=0;entryDx=0;entryDy=0;strokeColor=default;align=center;verticalAlign=middle;fontFamily=Helvetica;fontSize=11;fontColor=default;labelBackgroundColor=default;endArrow=none;endFill=0;" edge="1" parent="1" source="-gUTgzA7Ncet8yA0ThvM-1" target="-gUTgzA7Ncet8yA0ThvM-10">
          <mxGeometry relative="1" as="geometry" />
        </mxCell>
        <mxCell id="-gUTgzA7Ncet8yA0ThvM-39" style="edgeStyle=none;shape=connector;rounded=0;orthogonalLoop=1;jettySize=auto;html=1;entryX=0;entryY=0;entryDx=0;entryDy=0;strokeColor=default;align=center;verticalAlign=middle;fontFamily=Helvetica;fontSize=11;fontColor=default;labelBackgroundColor=default;endArrow=none;endFill=0;" edge="1" parent="1" source="-gUTgzA7Ncet8yA0ThvM-1" target="-gUTgzA7Ncet8yA0ThvM-11">
          <mxGeometry relative="1" as="geometry" />
        </mxCell>
        <mxCell id="-gUTgzA7Ncet8yA0ThvM-1" value="bar" style="whiteSpace=wrap;html=1;align=center;" vertex="1" parent="1">
          <mxGeometry x="364" y="240" width="100" height="40" as="geometry" />
        </mxCell>
        <mxCell id="-gUTgzA7Ncet8yA0ThvM-29" style="edgeStyle=none;shape=connector;rounded=0;orthogonalLoop=1;jettySize=auto;html=1;exitX=1;exitY=0.5;exitDx=0;exitDy=0;entryX=0;entryY=0.5;entryDx=0;entryDy=0;strokeColor=default;align=center;verticalAlign=middle;fontFamily=Helvetica;fontSize=11;fontColor=default;labelBackgroundColor=default;endArrow=none;endFill=0;" edge="1" parent="1" source="-gUTgzA7Ncet8yA0ThvM-2" target="-gUTgzA7Ncet8yA0ThvM-1">
          <mxGeometry relative="1" as="geometry" />
        </mxCell>
        <mxCell id="-gUTgzA7Ncet8yA0ThvM-2" value="reciben" style="shape=rhombus;perimeter=rhombusPerimeter;whiteSpace=wrap;html=1;align=center;" vertex="1" parent="1">
          <mxGeometry x="190" y="230" width="120" height="60" as="geometry" />
        </mxCell>
        <mxCell id="-gUTgzA7Ncet8yA0ThvM-31" style="edgeStyle=none;shape=connector;rounded=0;orthogonalLoop=1;jettySize=auto;html=1;entryX=0;entryY=0.5;entryDx=0;entryDy=0;strokeColor=default;align=center;verticalAlign=middle;fontFamily=Helvetica;fontSize=11;fontColor=default;labelBackgroundColor=default;endArrow=none;endFill=0;" edge="1" parent="1" source="-gUTgzA7Ncet8yA0ThvM-3" target="-gUTgzA7Ncet8yA0ThvM-5">
          <mxGeometry relative="1" as="geometry" />
        </mxCell>
        <mxCell id="-gUTgzA7Ncet8yA0ThvM-3" value="participan" style="shape=rhombus;perimeter=rhombusPerimeter;whiteSpace=wrap;html=1;align=center;" vertex="1" parent="1">
          <mxGeometry x="510" y="230" width="120" height="60" as="geometry" />
        </mxCell>
        <mxCell id="-gUTgzA7Ncet8yA0ThvM-28" style="edgeStyle=none;shape=connector;rounded=0;orthogonalLoop=1;jettySize=auto;html=1;entryX=0;entryY=0.5;entryDx=0;entryDy=0;strokeColor=default;align=center;verticalAlign=middle;fontFamily=Helvetica;fontSize=11;fontColor=default;labelBackgroundColor=default;endArrow=none;endFill=0;" edge="1" parent="1" source="-gUTgzA7Ncet8yA0ThvM-4" target="-gUTgzA7Ncet8yA0ThvM-2">
          <mxGeometry relative="1" as="geometry" />
        </mxCell>
        <mxCell id="-gUTgzA7Ncet8yA0ThvM-4" value="rese침as" style="whiteSpace=wrap;html=1;align=center;" vertex="1" parent="1">
          <mxGeometry x="50" y="240" width="100" height="40" as="geometry" />
        </mxCell>
        <mxCell id="-gUTgzA7Ncet8yA0ThvM-32" style="edgeStyle=none;shape=connector;rounded=0;orthogonalLoop=1;jettySize=auto;html=1;entryX=0;entryY=0.5;entryDx=0;entryDy=0;strokeColor=default;align=center;verticalAlign=middle;fontFamily=Helvetica;fontSize=11;fontColor=default;labelBackgroundColor=default;endArrow=none;endFill=0;" edge="1" parent="1" source="-gUTgzA7Ncet8yA0ThvM-5" target="-gUTgzA7Ncet8yA0ThvM-23">
          <mxGeometry relative="1" as="geometry" />
        </mxCell>
        <mxCell id="-gUTgzA7Ncet8yA0ThvM-33" style="edgeStyle=none;shape=connector;rounded=0;orthogonalLoop=1;jettySize=auto;html=1;entryX=0;entryY=0.5;entryDx=0;entryDy=0;strokeColor=default;align=center;verticalAlign=middle;fontFamily=Helvetica;fontSize=11;fontColor=default;labelBackgroundColor=default;endArrow=none;endFill=0;" edge="1" parent="1" source="-gUTgzA7Ncet8yA0ThvM-5" target="-gUTgzA7Ncet8yA0ThvM-24">
          <mxGeometry relative="1" as="geometry" />
        </mxCell>
        <mxCell id="-gUTgzA7Ncet8yA0ThvM-5" value="rutas gastron칩micas" style="whiteSpace=wrap;html=1;align=center;" vertex="1" parent="1">
          <mxGeometry x="680" y="240" width="100" height="40" as="geometry" />
        </mxCell>
        <mxCell id="-gUTgzA7Ncet8yA0ThvM-34" style="edgeStyle=none;shape=connector;rounded=0;orthogonalLoop=1;jettySize=auto;html=1;entryX=0;entryY=0;entryDx=0;entryDy=0;strokeColor=default;align=center;verticalAlign=middle;fontFamily=Helvetica;fontSize=11;fontColor=default;labelBackgroundColor=default;endArrow=none;endFill=0;" edge="1" parent="1" source="-gUTgzA7Ncet8yA0ThvM-6" target="-gUTgzA7Ncet8yA0ThvM-1">
          <mxGeometry relative="1" as="geometry" />
        </mxCell>
        <mxCell id="-gUTgzA7Ncet8yA0ThvM-6" value="nombre" style="ellipse;whiteSpace=wrap;html=1;align=center;" vertex="1" parent="1">
          <mxGeometry x="214" y="130" width="100" height="40" as="geometry" />
        </mxCell>
        <mxCell id="-gUTgzA7Ncet8yA0ThvM-35" style="edgeStyle=none;shape=connector;rounded=0;orthogonalLoop=1;jettySize=auto;html=1;entryX=0.25;entryY=0;entryDx=0;entryDy=0;strokeColor=default;align=center;verticalAlign=middle;fontFamily=Helvetica;fontSize=11;fontColor=default;labelBackgroundColor=default;endArrow=none;endFill=0;" edge="1" parent="1" source="-gUTgzA7Ncet8yA0ThvM-7" target="-gUTgzA7Ncet8yA0ThvM-1">
          <mxGeometry relative="1" as="geometry" />
        </mxCell>
        <mxCell id="-gUTgzA7Ncet8yA0ThvM-7" value="direcci칩n" style="ellipse;whiteSpace=wrap;html=1;align=center;" vertex="1" parent="1">
          <mxGeometry x="314" y="130" width="100" height="40" as="geometry" />
        </mxCell>
        <mxCell id="-gUTgzA7Ncet8yA0ThvM-36" style="edgeStyle=none;shape=connector;rounded=0;orthogonalLoop=1;jettySize=auto;html=1;entryX=0.75;entryY=0;entryDx=0;entryDy=0;strokeColor=default;align=center;verticalAlign=middle;fontFamily=Helvetica;fontSize=11;fontColor=default;labelBackgroundColor=default;endArrow=none;endFill=0;" edge="1" parent="1" source="-gUTgzA7Ncet8yA0ThvM-8" target="-gUTgzA7Ncet8yA0ThvM-1">
          <mxGeometry relative="1" as="geometry" />
        </mxCell>
        <mxCell id="-gUTgzA7Ncet8yA0ThvM-8" value="especialidades" style="ellipse;whiteSpace=wrap;html=1;align=center;" vertex="1" parent="1">
          <mxGeometry x="414" y="130" width="100" height="40" as="geometry" />
        </mxCell>
        <mxCell id="-gUTgzA7Ncet8yA0ThvM-37" style="edgeStyle=none;shape=connector;rounded=0;orthogonalLoop=1;jettySize=auto;html=1;entryX=1;entryY=0;entryDx=0;entryDy=0;strokeColor=default;align=center;verticalAlign=middle;fontFamily=Helvetica;fontSize=11;fontColor=default;labelBackgroundColor=default;endArrow=none;endFill=0;" edge="1" parent="1" source="-gUTgzA7Ncet8yA0ThvM-9" target="-gUTgzA7Ncet8yA0ThvM-1">
          <mxGeometry relative="1" as="geometry" />
        </mxCell>
        <mxCell id="-gUTgzA7Ncet8yA0ThvM-9" value="horarios" style="ellipse;whiteSpace=wrap;html=1;align=center;" vertex="1" parent="1">
          <mxGeometry x="514" y="130" width="100" height="40" as="geometry" />
        </mxCell>
        <mxCell id="-gUTgzA7Ncet8yA0ThvM-41" style="edgeStyle=none;shape=connector;rounded=0;orthogonalLoop=1;jettySize=auto;html=1;strokeColor=default;align=center;verticalAlign=middle;fontFamily=Helvetica;fontSize=11;fontColor=default;labelBackgroundColor=default;endArrow=none;endFill=0;" edge="1" parent="1" source="-gUTgzA7Ncet8yA0ThvM-10" target="-gUTgzA7Ncet8yA0ThvM-12">
          <mxGeometry relative="1" as="geometry" />
        </mxCell>
        <mxCell id="-gUTgzA7Ncet8yA0ThvM-10" value="contratan" style="shape=rhombus;perimeter=rhombusPerimeter;whiteSpace=wrap;html=1;align=center;" vertex="1" parent="1">
          <mxGeometry x="270" y="320" width="120" height="60" as="geometry" />
        </mxCell>
        <mxCell id="-gUTgzA7Ncet8yA0ThvM-40" style="edgeStyle=none;shape=connector;rounded=0;orthogonalLoop=1;jettySize=auto;html=1;entryX=0.5;entryY=0;entryDx=0;entryDy=0;strokeColor=default;align=center;verticalAlign=middle;fontFamily=Helvetica;fontSize=11;fontColor=default;labelBackgroundColor=default;endArrow=none;endFill=0;" edge="1" parent="1" source="-gUTgzA7Ncet8yA0ThvM-11" target="-gUTgzA7Ncet8yA0ThvM-13">
          <mxGeometry relative="1" as="geometry" />
        </mxCell>
        <mxCell id="-gUTgzA7Ncet8yA0ThvM-11" value="ofrecen" style="shape=rhombus;perimeter=rhombusPerimeter;whiteSpace=wrap;html=1;align=center;" vertex="1" parent="1">
          <mxGeometry x="440" y="320" width="120" height="60" as="geometry" />
        </mxCell>
        <mxCell id="-gUTgzA7Ncet8yA0ThvM-42" style="edgeStyle=none;shape=connector;rounded=0;orthogonalLoop=1;jettySize=auto;html=1;entryX=1;entryY=0.5;entryDx=0;entryDy=0;strokeColor=default;align=center;verticalAlign=middle;fontFamily=Helvetica;fontSize=11;fontColor=default;labelBackgroundColor=default;endArrow=none;endFill=0;" edge="1" parent="1" source="-gUTgzA7Ncet8yA0ThvM-12" target="-gUTgzA7Ncet8yA0ThvM-14">
          <mxGeometry relative="1" as="geometry" />
        </mxCell>
        <mxCell id="-gUTgzA7Ncet8yA0ThvM-43" style="edgeStyle=none;shape=connector;rounded=0;orthogonalLoop=1;jettySize=auto;html=1;entryX=1;entryY=0.5;entryDx=0;entryDy=0;strokeColor=default;align=center;verticalAlign=middle;fontFamily=Helvetica;fontSize=11;fontColor=default;labelBackgroundColor=default;endArrow=none;endFill=0;" edge="1" parent="1" source="-gUTgzA7Ncet8yA0ThvM-12" target="-gUTgzA7Ncet8yA0ThvM-15">
          <mxGeometry relative="1" as="geometry" />
        </mxCell>
        <mxCell id="-gUTgzA7Ncet8yA0ThvM-12" value="proveedores" style="whiteSpace=wrap;html=1;align=center;" vertex="1" parent="1">
          <mxGeometry x="280" y="410" width="100" height="40" as="geometry" />
        </mxCell>
        <mxCell id="-gUTgzA7Ncet8yA0ThvM-13" value="tapas" style="whiteSpace=wrap;html=1;align=center;" vertex="1" parent="1">
          <mxGeometry x="450" y="410" width="100" height="40" as="geometry" />
        </mxCell>
        <mxCell id="-gUTgzA7Ncet8yA0ThvM-14" value="producto" style="ellipse;whiteSpace=wrap;html=1;align=center;" vertex="1" parent="1">
          <mxGeometry x="130" y="390" width="100" height="40" as="geometry" />
        </mxCell>
        <mxCell id="-gUTgzA7Ncet8yA0ThvM-15" value="nombre" style="ellipse;whiteSpace=wrap;html=1;align=center;" vertex="1" parent="1">
          <mxGeometry x="130" y="430" width="100" height="40" as="geometry" />
        </mxCell>
        <mxCell id="-gUTgzA7Ncet8yA0ThvM-44" style="edgeStyle=none;shape=connector;rounded=0;orthogonalLoop=1;jettySize=auto;html=1;entryX=1;entryY=0;entryDx=0;entryDy=0;strokeColor=default;align=center;verticalAlign=middle;fontFamily=Helvetica;fontSize=11;fontColor=default;labelBackgroundColor=default;endArrow=none;endFill=0;" edge="1" parent="1" source="-gUTgzA7Ncet8yA0ThvM-16" target="-gUTgzA7Ncet8yA0ThvM-13">
          <mxGeometry relative="1" as="geometry" />
        </mxCell>
        <mxCell id="-gUTgzA7Ncet8yA0ThvM-16" value="horarios" style="ellipse;whiteSpace=wrap;html=1;align=center;" vertex="1" parent="1">
          <mxGeometry x="614" y="350" width="100" height="40" as="geometry" />
        </mxCell>
        <mxCell id="-gUTgzA7Ncet8yA0ThvM-45" style="edgeStyle=none;shape=connector;rounded=0;orthogonalLoop=1;jettySize=auto;html=1;entryX=1;entryY=0.25;entryDx=0;entryDy=0;strokeColor=default;align=center;verticalAlign=middle;fontFamily=Helvetica;fontSize=11;fontColor=default;labelBackgroundColor=default;endArrow=none;endFill=0;" edge="1" parent="1" source="-gUTgzA7Ncet8yA0ThvM-17" target="-gUTgzA7Ncet8yA0ThvM-13">
          <mxGeometry relative="1" as="geometry" />
        </mxCell>
        <mxCell id="-gUTgzA7Ncet8yA0ThvM-17" value="descripci칩n" style="ellipse;whiteSpace=wrap;html=1;align=center;" vertex="1" parent="1">
          <mxGeometry x="614" y="390" width="100" height="40" as="geometry" />
        </mxCell>
        <mxCell id="-gUTgzA7Ncet8yA0ThvM-46" style="edgeStyle=none;shape=connector;rounded=0;orthogonalLoop=1;jettySize=auto;html=1;entryX=1;entryY=0.75;entryDx=0;entryDy=0;strokeColor=default;align=center;verticalAlign=middle;fontFamily=Helvetica;fontSize=11;fontColor=default;labelBackgroundColor=default;endArrow=none;endFill=0;" edge="1" parent="1" source="-gUTgzA7Ncet8yA0ThvM-18" target="-gUTgzA7Ncet8yA0ThvM-13">
          <mxGeometry relative="1" as="geometry" />
        </mxCell>
        <mxCell id="-gUTgzA7Ncet8yA0ThvM-18" value="nombre" style="ellipse;whiteSpace=wrap;html=1;align=center;" vertex="1" parent="1">
          <mxGeometry x="614" y="430" width="100" height="40" as="geometry" />
        </mxCell>
        <mxCell id="-gUTgzA7Ncet8yA0ThvM-47" style="edgeStyle=none;shape=connector;rounded=0;orthogonalLoop=1;jettySize=auto;html=1;entryX=1;entryY=1;entryDx=0;entryDy=0;strokeColor=default;align=center;verticalAlign=middle;fontFamily=Helvetica;fontSize=11;fontColor=default;labelBackgroundColor=default;endArrow=none;endFill=0;" edge="1" parent="1" source="-gUTgzA7Ncet8yA0ThvM-19" target="-gUTgzA7Ncet8yA0ThvM-13">
          <mxGeometry relative="1" as="geometry" />
        </mxCell>
        <mxCell id="-gUTgzA7Ncet8yA0ThvM-19" value="precio" style="ellipse;whiteSpace=wrap;html=1;align=center;" vertex="1" parent="1">
          <mxGeometry x="614" y="470" width="100" height="40" as="geometry" />
        </mxCell>
        <mxCell id="-gUTgzA7Ncet8yA0ThvM-25" style="rounded=0;orthogonalLoop=1;jettySize=auto;html=1;entryX=0;entryY=0;entryDx=0;entryDy=0;endArrow=none;endFill=0;" edge="1" parent="1" source="-gUTgzA7Ncet8yA0ThvM-20" target="-gUTgzA7Ncet8yA0ThvM-4">
          <mxGeometry relative="1" as="geometry" />
        </mxCell>
        <mxCell id="-gUTgzA7Ncet8yA0ThvM-20" value="puntuaci칩n" style="ellipse;whiteSpace=wrap;html=1;align=center;" vertex="1" parent="1">
          <mxGeometry x="-100" y="200" width="100" height="40" as="geometry" />
        </mxCell>
        <mxCell id="-gUTgzA7Ncet8yA0ThvM-26" style="edgeStyle=none;shape=connector;rounded=0;orthogonalLoop=1;jettySize=auto;html=1;strokeColor=default;align=center;verticalAlign=middle;fontFamily=Helvetica;fontSize=11;fontColor=default;labelBackgroundColor=default;endArrow=none;endFill=0;" edge="1" parent="1" source="-gUTgzA7Ncet8yA0ThvM-21" target="-gUTgzA7Ncet8yA0ThvM-4">
          <mxGeometry relative="1" as="geometry" />
        </mxCell>
        <mxCell id="-gUTgzA7Ncet8yA0ThvM-21" value="fecha" style="ellipse;whiteSpace=wrap;html=1;align=center;" vertex="1" parent="1">
          <mxGeometry x="-100" y="240" width="100" height="40" as="geometry" />
        </mxCell>
        <mxCell id="-gUTgzA7Ncet8yA0ThvM-27" style="edgeStyle=none;shape=connector;rounded=0;orthogonalLoop=1;jettySize=auto;html=1;entryX=0;entryY=1;entryDx=0;entryDy=0;strokeColor=default;align=center;verticalAlign=middle;fontFamily=Helvetica;fontSize=11;fontColor=default;labelBackgroundColor=default;endArrow=none;endFill=0;" edge="1" parent="1" source="-gUTgzA7Ncet8yA0ThvM-22" target="-gUTgzA7Ncet8yA0ThvM-4">
          <mxGeometry relative="1" as="geometry" />
        </mxCell>
        <mxCell id="-gUTgzA7Ncet8yA0ThvM-22" value="comentario" style="ellipse;whiteSpace=wrap;html=1;align=center;" vertex="1" parent="1">
          <mxGeometry x="-100" y="280" width="100" height="40" as="geometry" />
        </mxCell>
        <mxCell id="-gUTgzA7Ncet8yA0ThvM-23" value="bares" style="ellipse;whiteSpace=wrap;html=1;align=center;" vertex="1" parent="1">
          <mxGeometry x="850" y="220" width="100" height="40" as="geometry" />
        </mxCell>
        <mxCell id="-gUTgzA7Ncet8yA0ThvM-24" value="fechas" style="ellipse;whiteSpace=wrap;html=1;align=center;" vertex="1" parent="1">
          <mxGeometry x="850" y="260" width="100" height="40" as="geometry" />
        </mxCell>
        <mxCell id="-gUTgzA7Ncet8yA0ThvM-48" value="(0,m)" style="text;strokeColor=none;fillColor=none;spacingLeft=4;spacingRight=4;overflow=hidden;rotatable=0;points=[[0,0.5],[1,0.5]];portConstraint=eastwest;fontSize=11;whiteSpace=wrap;html=1;fontFamily=Helvetica;fontColor=default;labelBackgroundColor=default;" vertex="1" parent="1">
          <mxGeometry x="330" y="240" width="40" height="30" as="geometry" />
        </mxCell>
        <mxCell id="-gUTgzA7Ncet8yA0ThvM-50" value="(1,m)" style="text;strokeColor=none;fillColor=none;spacingLeft=4;spacingRight=4;overflow=hidden;rotatable=0;points=[[0,0.5],[1,0.5]];portConstraint=eastwest;fontSize=11;whiteSpace=wrap;html=1;fontFamily=Helvetica;fontColor=default;labelBackgroundColor=default;" vertex="1" parent="1">
          <mxGeometry x="464" y="240" width="40" height="30" as="geometry" />
        </mxCell>
        <mxCell id="-gUTgzA7Ncet8yA0ThvM-51" value="(0,n)" style="text;strokeColor=none;fillColor=none;spacingLeft=4;spacingRight=4;overflow=hidden;rotatable=0;points=[[0,0.5],[1,0.5]];portConstraint=eastwest;fontSize=11;whiteSpace=wrap;html=1;fontFamily=Helvetica;fontColor=default;labelBackgroundColor=default;" vertex="1" parent="1">
          <mxGeometry x="150" y="240" width="40" height="30" as="geometry" />
        </mxCell>
        <mxCell id="-gUTgzA7Ncet8yA0ThvM-52" value="(0,n)" style="text;strokeColor=none;fillColor=none;spacingLeft=4;spacingRight=4;overflow=hidden;rotatable=0;points=[[0,0.5],[1,0.5]];portConstraint=eastwest;fontSize=11;whiteSpace=wrap;html=1;fontFamily=Helvetica;fontColor=default;labelBackgroundColor=default;" vertex="1" parent="1">
          <mxGeometry x="644" y="240" width="40" height="30" as="geometry" />
        </mxCell>
        <mxCell id="-gUTgzA7Ncet8yA0ThvM-53" value="(0,n)" style="text;strokeColor=none;fillColor=none;spacingLeft=4;spacingRight=4;overflow=hidden;rotatable=0;points=[[0,0.5],[1,0.5]];portConstraint=eastwest;fontSize=11;whiteSpace=wrap;html=1;fontFamily=Helvetica;fontColor=default;labelBackgroundColor=default;" vertex="1" parent="1">
          <mxGeometry x="350" y="280" width="40" height="30" as="geometry" />
        </mxCell>
        <mxCell id="-gUTgzA7Ncet8yA0ThvM-54" value="(0,n)" style="text;strokeColor=none;fillColor=none;spacingLeft=4;spacingRight=4;overflow=hidden;rotatable=0;points=[[0,0.5],[1,0.5]];portConstraint=eastwest;fontSize=11;whiteSpace=wrap;html=1;fontFamily=Helvetica;fontColor=default;labelBackgroundColor=default;" vertex="1" parent="1">
          <mxGeometry x="444" y="280" width="40" height="30" as="geometry" />
        </mxCell>
        <mxCell id="-gUTgzA7Ncet8yA0ThvM-55" value="(0,m)" style="text;strokeColor=none;fillColor=none;spacingLeft=4;spacingRight=4;overflow=hidden;rotatable=0;points=[[0,0.5],[1,0.5]];portConstraint=eastwest;fontSize=11;whiteSpace=wrap;html=1;fontFamily=Helvetica;fontColor=default;labelBackgroundColor=default;" vertex="1" parent="1">
          <mxGeometry x="290" y="370" width="40" height="30" as="geometry" />
        </mxCell>
        <mxCell id="-gUTgzA7Ncet8yA0ThvM-56" value="(0,m)" style="text;strokeColor=none;fillColor=none;spacingLeft=4;spacingRight=4;overflow=hidden;rotatable=0;points=[[0,0.5],[1,0.5]];portConstraint=eastwest;fontSize=11;whiteSpace=wrap;html=1;fontFamily=Helvetica;fontColor=default;labelBackgroundColor=default;" vertex="1" parent="1">
          <mxGeometry x="500" y="370" width="40" height="30" as="geometry" />
        </mxCell>
      </root>
    </mxGraphModel>
  </diagram>
</mxfile>
